<svg width="153" height="123" viewBox="0 0 153 123" fill="none" xmlns="http://www.w3.org/2000/svg">
<path d="M38.1473 117.842C37.9925 119.232 37.5023 120.306 36.6766 121.064C35.8567 121.816 34.7645 122.193 33.3999 122.193C31.9206 122.193 30.7338 121.636 29.8393 120.523C28.9506 119.409 28.5063 117.92 28.5063 116.054V114.791C28.5063 113.569 28.7126 112.495 29.1255 111.568C29.544 110.641 30.1346 109.931 30.8972 109.438C31.6597 108.938 32.5427 108.689 33.5461 108.689C34.8763 108.689 35.9428 109.08 36.7455 109.862C37.5481 110.639 38.0154 111.716 38.1473 113.094H36.4874C36.3441 112.047 36.0316 111.288 35.55 110.819C35.0741 110.35 34.4062 110.115 33.5461 110.115C32.4911 110.115 31.6625 110.524 31.0605 111.342C30.4643 112.161 30.1661 113.325 30.1661 114.836V116.109C30.1661 117.535 30.45 118.669 31.0175 119.512C31.5852 120.354 32.3792 120.775 33.3999 120.775C34.3173 120.775 35.0197 120.559 35.5071 120.125C36.0001 119.686 36.327 118.925 36.4874 117.842H38.1473ZM64.9375 118.582H59.6913L58.5131 122.012H56.8102L61.592 108.869H63.0368L67.8274 122.012H66.1331L64.9375 118.582ZM60.1901 117.156H64.4473L62.3145 111.009L60.1901 117.156ZM90.8162 116.154C89.4 115.726 88.3681 115.203 87.72 114.583C87.0779 113.957 86.7568 113.187 86.7568 112.272C86.7568 111.237 87.1495 110.383 87.9351 109.709C88.7263 109.029 89.7527 108.689 91.014 108.689C91.8741 108.689 92.6395 108.863 93.3103 109.212C93.987 109.561 94.5087 110.043 94.8756 110.656C95.2483 111.27 95.4347 111.941 95.4347 112.669H93.7747C93.7747 111.875 93.534 111.252 93.0524 110.801C92.5707 110.344 91.8913 110.115 91.014 110.115C90.1999 110.115 89.5635 110.304 89.1047 110.684C88.6518 111.057 88.4253 111.577 88.4253 112.245C88.4253 112.781 88.6404 113.235 89.0703 113.608C89.5061 113.975 90.2429 114.312 91.2807 114.619C92.3241 114.926 93.1384 115.266 93.7231 115.639C94.3137 116.006 94.7495 116.436 95.0304 116.93C95.3172 117.423 95.4604 118.004 95.4604 118.672C95.4604 119.737 95.0648 120.592 94.2736 121.236C93.4824 121.874 92.4245 122.193 91.1001 122.193C90.24 122.193 89.4374 122.021 88.692 121.678C87.9466 121.329 87.3702 120.854 86.9632 120.252C86.562 119.65 86.3612 118.967 86.3612 118.203H88.0211C88.0211 118.997 88.2992 119.626 88.8552 120.089C89.4173 120.547 90.1655 120.775 91.1001 120.775C91.9716 120.775 92.6395 120.589 93.104 120.216C93.5683 119.843 93.8006 119.334 93.8006 118.69C93.8006 118.046 93.5856 117.55 93.1556 117.201C92.7255 116.846 91.9457 116.497 90.8162 116.154ZM122.277 115.937H116.85V120.595H123.154V122.012H115.198V108.869H123.068V110.295H116.85V114.52H122.277V115.937Z" fill="#777777"/>
<path fill-rule="evenodd" clip-rule="evenodd" d="M67.7776 33.091L76.779 38.3371L96.0092 27.8448L105.829 33.091L76.779 49.233L48.1382 32.6874L76.779 16.949L86.5988 21.7917L67.7776 33.091Z" fill="#777777"/>
<path fill-rule="evenodd" clip-rule="evenodd" d="M76.7791 0L34.2271 25.0202V41.5656L76.7791 66.1823L120.149 41.6059V25.0605L76.7791 0ZM114.831 38.3373L77.1883 60.129L38.7277 38.3373V27.4414L77.1883 5.6497L86.5987 11.2994V21.7917L95.6002 16.5455L114.831 27.4414V38.3373Z" fill="#777777"/>
<path d="M6.13638 89.9529V97.9794H0.702637V74.3222H9.69694C11.4205 74.3222 12.9427 74.6581 14.2638 75.3295C15.5951 75.9904 16.622 76.9382 17.3444 78.173C18.0773 79.397 18.4436 80.789 18.4436 82.3487C18.4436 84.6561 17.654 86.5029 16.075 87.8894C14.5063 89.265 12.3493 89.9529 9.60406 89.9529H6.13638ZM6.13638 85.5497H9.69694C10.7496 85.5497 11.5495 85.2735 12.0965 84.7209C12.6538 84.1686 12.9324 83.3886 12.9324 82.3813C12.9324 81.2763 12.6486 80.3936 12.081 79.7329C11.5133 79.0722 10.7393 78.7362 9.75887 78.7255H6.13638V85.5497ZM29.729 89.6279H26.7877V97.9794H21.3539V74.3222H30.2243C32.8974 74.3222 34.9872 74.945 36.4941 76.1908C38.0009 77.4365 38.7543 79.1966 38.7543 81.4714C38.7543 83.1178 38.4344 84.4826 37.7945 85.566C37.165 86.6491 36.1742 87.5265 34.8222 88.1981L39.5284 97.7358V97.9794H33.7076L29.729 89.6279ZM26.7877 85.2247H30.2243C31.2565 85.2247 32.0304 84.943 32.5465 84.3799C33.0728 83.8057 33.336 83.0094 33.336 81.9914C33.336 80.9731 33.0728 80.1769 32.5465 79.6029C32.0202 79.018 31.2461 78.7255 30.2243 78.7255H26.7877V85.2247ZM61.1239 86.6382C61.1239 88.9455 60.7164 90.9874 59.901 92.7638C59.0857 94.5401 57.9246 95.9106 56.4177 96.8745C54.9213 97.8278 53.2133 98.3044 51.2938 98.3044C49.3741 98.3044 47.6712 97.8441 46.1851 96.9233C44.6989 95.9917 43.5378 94.6647 42.7018 92.9425C41.8763 91.2203 41.4428 89.2433 41.4014 87.012V85.6797C41.4014 83.3616 41.8041 81.3198 42.609 79.5541C43.4243 77.7777 44.5854 76.4075 46.0921 75.4434C47.6093 74.4793 49.3328 73.9972 51.2628 73.9972C53.1721 73.9972 54.875 74.474 56.3714 75.4271C57.8679 76.3803 59.029 77.7398 59.8545 79.5053C60.6905 81.2602 61.1135 83.2749 61.1239 85.5497V86.6382ZM55.5973 85.6471C55.5973 83.2965 55.2205 81.5148 54.4672 80.3015C53.7241 79.0775 52.656 78.4654 51.2628 78.4654C48.5381 78.4654 47.0984 80.6102 46.9436 84.8997L46.928 86.6382C46.928 88.9562 47.2944 90.7382 48.0273 91.9838C48.76 93.2296 49.8487 93.8524 51.2938 93.8524C52.6664 93.8524 53.7241 93.2403 54.4672 92.0163C55.2103 90.7923 55.5871 89.0322 55.5973 86.7358V85.6471Z" fill="#777777"/>
<path d="M82.3792 95.0548C81.5433 96.0296 80.3202 96.8149 78.7103 97.4107C77.1003 98.0063 75.3356 98.3044 73.4158 98.3044C70.4642 98.3044 68.106 97.3565 66.3412 95.4609C64.5764 93.5653 63.632 90.9276 63.5082 87.5481L63.4927 85.5009C63.4927 83.1719 63.8849 81.141 64.6693 79.4078C65.4536 77.6638 66.5735 76.3261 68.0285 75.3946C69.4942 74.4521 71.1867 73.9811 73.1062 73.9811C75.9135 73.9811 78.091 74.6581 79.6391 76.012C81.1975 77.3553 82.1057 79.3646 82.3638 82.04H77.1313C76.9454 80.7185 76.543 79.7761 75.9239 79.2128C75.3046 78.6495 74.4272 78.368 73.292 78.368C71.9298 78.368 70.877 78.9745 70.1339 80.1878C69.391 81.4009 69.0142 83.134 69.0038 85.3872V86.8169C69.0038 89.1784 69.3857 90.9548 70.1494 92.1463C70.9235 93.327 72.1362 93.9173 73.7875 93.9173C75.2013 93.9173 76.2541 93.5869 76.9454 92.9262V89.2542H73.1682V85.3384H82.3792V95.0548ZM93.9123 89.6278H90.971V97.9794H85.5374V74.3222H94.4078C97.0808 74.3222 99.1707 74.945 100.678 76.1908C102.184 77.4364 102.938 79.1965 102.938 81.4713C102.938 83.1177 102.618 84.4826 101.978 85.5659C101.348 86.6491 100.357 87.5264 99.0055 88.1981L103.712 97.7357V97.9794H97.8909L93.9123 89.6278ZM90.971 85.2247H94.4078C95.4398 85.2247 96.2139 84.9429 96.73 84.3798C97.2563 83.8056 97.5194 83.0094 97.5194 81.9914C97.5194 80.9731 97.2563 80.1769 96.73 79.6029C96.2035 79.018 95.4295 78.7255 94.4078 78.7255H90.971V85.2247ZM119.022 93.5599H111.576L110.276 97.9794H104.47L112.737 74.3222H117.846L126.174 97.9794H120.338L119.022 93.5599ZM112.876 89.1566H117.722L115.291 80.9515L112.876 89.1566ZM134.967 74.3222L139.999 90.7814L145.014 74.3222H152.166V97.9794H146.717V92.455L147.244 81.1463L141.794 97.9794H138.203L132.738 81.1301L133.264 92.455V97.9794H127.831V74.3222H134.967Z" fill="#777777"/>
</svg>
