<svg width="88" height="73" viewBox="0 0 88 73" fill="none" xmlns="http://www.w3.org/2000/svg">
<g clip-path="url(#clip0)">
<path d="M22.2256 67.1949C22.1377 67.9811 21.8594 68.5886 21.3906 69.0175C20.9251 69.4429 20.305 69.6557 19.5303 69.6557C18.6904 69.6557 18.0166 69.3408 17.5088 68.7111C17.0042 68.0815 16.752 67.2392 16.752 66.184V65.4694C16.752 64.7784 16.8691 64.1709 17.1035 63.6468C17.3411 63.1226 17.6764 62.721 18.1094 62.4418C18.5423 62.1594 19.0436 62.0182 19.6133 62.0182C20.3685 62.0182 20.974 62.2394 21.4297 62.6818C21.8854 63.1209 22.1507 63.7301 22.2256 64.5095H21.2832C21.2018 63.9173 21.0244 63.4885 20.751 63.223C20.4808 62.9575 20.1016 62.8248 19.6133 62.8248C19.0143 62.8248 18.5439 63.0562 18.2021 63.5191C17.8636 63.982 17.6943 64.6406 17.6943 65.4949V66.2146C17.6943 67.0213 17.8555 67.6628 18.1777 68.1394C18.5 68.6159 18.9508 68.8542 19.5303 68.8542C20.0511 68.8542 20.4499 68.7316 20.7266 68.4865C21.0065 68.2381 21.1921 67.8075 21.2832 67.1949H22.2256ZM37.4355 67.6135H34.457L33.7881 69.5535H32.8213L35.5361 62.1202H36.3564L39.0762 69.5535H38.1143L37.4355 67.6135ZM34.7402 66.8068H37.1572L35.9463 63.3303L34.7402 66.8068ZM52.1279 66.2403C51.3239 65.9985 50.7379 65.7024 50.37 65.3518C50.0054 64.9979 49.8232 64.5622 49.8232 64.0449C49.8232 63.4595 50.0461 62.9762 50.4921 62.595C50.9413 62.2105 51.5241 62.0182 52.2402 62.0182C52.7285 62.0182 53.1631 62.1169 53.5439 62.3143C53.9281 62.5117 54.2242 62.784 54.4325 63.1311C54.6441 63.4783 54.75 63.8577 54.75 64.2696H53.8075C53.8075 63.8203 53.6709 63.4681 53.3975 63.2127C53.124 62.9542 52.7383 62.8248 52.2402 62.8248C51.778 62.8248 51.4167 62.932 51.1562 63.1465C50.8991 63.3574 50.7705 63.6519 50.7705 64.0296C50.7705 64.3325 50.8926 64.5895 51.1367 64.8005C51.3841 65.0082 51.8024 65.1988 52.3916 65.3723C52.984 65.5459 53.4463 65.7382 53.7783 65.9492C54.1136 66.1568 54.361 66.4001 54.5205 66.6793C54.6833 66.9583 54.7645 67.2868 54.7645 67.6646C54.7645 68.267 54.54 68.7503 54.0908 69.1145C53.6416 69.4752 53.041 69.6557 52.2891 69.6557C51.8008 69.6557 51.3451 69.5586 50.9219 69.3646C50.4987 69.1672 50.1715 68.8984 49.9404 68.558C49.7126 68.2176 49.5985 67.8314 49.5985 67.3992H50.541C50.541 67.8483 50.6988 68.204 51.0145 68.4661C51.3336 68.7248 51.7585 68.8542 52.2891 68.8542C52.7839 68.8542 53.1631 68.7486 53.4268 68.5376C53.6904 68.3266 53.8223 68.0389 53.8223 67.6748C53.8223 67.3106 53.7002 67.0299 53.4561 66.8325C53.2119 66.6316 52.7692 66.4342 52.1279 66.2403ZM69.9893 66.1177H66.9082V68.752H70.4873V69.5535H65.9707V62.1202H70.4385V62.9269H66.9082V65.3162H69.9893V66.1177Z" fill="white"/>
<path fill-rule="evenodd" clip-rule="evenodd" d="M39.048 19.2622L44.1586 22.2293L55.0764 16.2951L60.6515 19.2622L44.1586 28.3917L27.8979 19.0339L44.1586 10.1327L49.7337 12.8716L39.048 19.2622Z" fill="#F0B90B"/>
<path fill-rule="evenodd" clip-rule="evenodd" d="M44.1586 0.546753L20 14.6975V24.0552L44.1586 37.9777L68.7817 24.078V14.7203L44.1586 0.546753ZM65.762 22.2293L44.3909 34.5541L22.5552 22.2293V16.0669L44.3909 3.74207L49.7336 6.93738V12.8716L54.8441 9.90447L65.762 16.0669V22.2293Z" fill="#F0B90B"/>
<path d="M4.05176 51.4217V55.9613H0.966797V42.5814H6.07324C7.05176 42.5814 7.91602 42.7714 8.66602 43.1511C9.42188 43.5249 10.0049 44.061 10.415 44.7593C10.8311 45.4515 11.0391 46.2389 11.0391 47.121C11.0391 48.426 10.5908 49.4705 9.69434 50.2546C8.80371 51.0326 7.5791 51.4217 6.02051 51.4217H4.05176ZM4.05176 48.9314H6.07324C6.6709 48.9314 7.125 48.7752 7.43555 48.4626C7.75195 48.1502 7.91016 47.7091 7.91016 47.1394C7.91016 46.5145 7.74902 46.0152 7.42676 45.6415C7.10449 45.2678 6.66504 45.0779 6.1084 45.0718H4.05176V48.9314ZM17.4463 51.2379H15.7764V55.9613H12.6914V42.5814H17.7275C19.2451 42.5814 20.4316 42.9336 21.2871 43.6382C22.1426 44.3427 22.5703 45.3382 22.5703 46.6248C22.5703 47.5559 22.3887 48.3279 22.0254 48.9406C21.668 49.5532 21.1055 50.0494 20.3379 50.4292L23.0098 55.8235V55.9613H19.7051L17.4463 51.2379ZM15.7764 48.7476H17.7275C18.3135 48.7476 18.7529 48.5882 19.0459 48.2697C19.3447 47.945 19.4941 47.4947 19.4941 46.9189C19.4941 46.343 19.3447 45.8927 19.0459 45.568C18.7471 45.2372 18.3076 45.0718 17.7275 45.0718H15.7764V48.7476ZM35.2705 49.547C35.2705 50.852 35.0391 52.0068 34.5762 53.0115C34.1133 54.0161 33.4541 54.7912 32.5986 55.3364C31.749 55.8755 30.7793 56.1451 29.6895 56.1451C28.5996 56.1451 27.6328 55.8847 26.7891 55.364C25.9453 54.8371 25.2861 54.0866 24.8115 53.1126C24.3428 52.1385 24.0967 51.0204 24.0732 49.7584V49.0049C24.0732 47.6939 24.3018 46.539 24.7588 45.5404C25.2217 44.5357 25.8809 43.7608 26.7363 43.2155C27.5977 42.6703 28.5762 42.3976 29.6719 42.3976C30.7559 42.3976 31.7227 42.6672 32.5723 43.2063C33.4219 43.7454 34.0811 44.5143 34.5498 45.5128C35.0244 46.5054 35.2646 47.6448 35.2705 48.9314V49.547ZM32.1328 48.9865C32.1328 47.6571 31.9189 46.6493 31.4912 45.9631C31.0693 45.2709 30.4629 44.9247 29.6719 44.9247C28.125 44.9247 27.3076 46.1377 27.2197 48.5638L27.2109 49.547C27.2109 50.858 27.4189 51.8658 27.835 52.5703C28.251 53.2749 28.8691 53.6272 29.6895 53.6272C30.4688 53.6272 31.0693 53.281 31.4912 52.5887C31.9131 51.8965 32.127 50.901 32.1328 49.6022V48.9865Z" fill="white"/>
<path d="M47.3379 54.3073C46.8633 54.8586 46.1689 55.3027 45.2549 55.6397C44.3408 55.9766 43.3389 56.1452 42.249 56.1452C40.5732 56.1452 39.2344 55.6091 38.2324 54.537C37.2305 53.4649 36.6943 51.9731 36.624 50.0617L36.6152 48.9038C36.6152 47.5866 36.8379 46.438 37.2832 45.4578C37.7285 44.4714 38.3643 43.7148 39.1904 43.188C40.0225 42.655 40.9834 42.3885 42.0732 42.3885C43.667 42.3885 44.9033 42.7714 45.7822 43.5372C46.667 44.2969 47.1826 45.4333 47.3291 46.9464H44.3584C44.2529 46.1991 44.0244 45.6661 43.6729 45.3475C43.3213 45.0289 42.8232 44.8697 42.1787 44.8697C41.4053 44.8697 40.8076 45.2127 40.3857 45.8989C39.9639 46.585 39.75 47.5652 39.7441 48.8395V49.6482C39.7441 50.9838 39.9609 51.9884 40.3945 52.6623C40.834 53.3301 41.5225 53.6639 42.46 53.6639C43.2627 53.6639 43.8604 53.4771 44.2529 53.1034V51.0266H42.1084V48.8119H47.3379V54.3073ZM53.8857 51.2379H52.2158V55.9613H49.1309V42.5815H54.167C55.6846 42.5815 56.8711 42.9337 57.7266 43.6383C58.582 44.3428 59.0098 45.3383 59.0098 46.6248C59.0098 47.556 58.8281 48.3279 58.4648 48.9406C58.1074 49.5532 57.5449 50.0494 56.7773 50.4293L59.4492 55.8235V55.9613H56.1445L53.8857 51.2379ZM52.2158 48.7476H54.167C54.7529 48.7476 55.1924 48.5883 55.4854 48.2698C55.7842 47.9451 55.9336 47.4947 55.9336 46.9189C55.9336 46.3431 55.7842 45.8927 55.4854 45.5681C55.1865 45.2373 54.7471 45.0719 54.167 45.0719H52.2158V48.7476ZM68.1416 53.4618H63.9141L63.1758 55.9613H59.8799L64.5732 42.5815H67.4736L72.2021 55.9613H68.8887L68.1416 53.4618ZM64.6523 50.9714H67.4033L66.0234 46.3308L64.6523 50.9714ZM77.1943 42.5815L80.0508 51.8904L82.8984 42.5815H86.959V55.9613H83.8652V52.8369L84.1641 46.441L81.0703 55.9613H79.0312L75.9287 46.4318L76.2275 52.8369V55.9613H73.1426V42.5815H77.1943Z" fill="#F0B90B"/>
</g>
<defs>
<clipPath id="clip0">
<rect width="88" height="72.1435" fill="white" transform="translate(0 0.546753)"/>
</clipPath>
</defs>
</svg>
