<svg width="17" height="17" viewBox="0 0 17 17" fill="none" xmlns="http://www.w3.org/2000/svg">
<path d="M5.83636 2.93679H11.1628C11.1628 2.93679 13.2739 0.824405 12.3183 0.138096C11.3627 -0.548212 9.24599 1.55321 8.49991 1.50208C7.75417 1.55321 5.63548 -0.548876 4.68155 0.138096C3.72763 0.825069 5.83636 2.93679 5.83636 2.93679Z" fill="#F0B90B"/>
<path d="M6.11242 3.28711C5.98792 3.29039 5.86963 3.34215 5.78274 3.43137C5.69584 3.52058 5.64722 3.6402 5.64722 3.76474C5.64722 3.88927 5.69584 4.00889 5.78274 4.0981C5.86963 4.18732 5.98792 4.23908 6.11242 4.24236H10.887C11.0115 4.23908 11.1298 4.18732 11.2167 4.0981C11.3036 4.00889 11.3522 3.88927 11.3522 3.76474C11.3522 3.6402 11.3036 3.52058 11.2167 3.43137C11.1298 3.34215 11.0115 3.29039 10.887 3.28711H6.11242Z" fill="#F0B90B"/>
<path d="M9.62243 10.7784C9.48742 10.6715 9.33936 10.5823 9.18182 10.5128C9.01647 10.4373 8.84304 10.3667 8.66153 10.3009L8.66618 8.73243C8.81379 8.75338 8.95127 8.81962 9.05963 8.92202C9.16124 9.02097 9.21215 9.15931 9.21237 9.33706V9.46224C9.27284 9.47104 9.33387 9.47548 9.39498 9.47552C9.45609 9.47545 9.51696 9.46798 9.57627 9.45327C9.63328 9.43991 9.68754 9.41677 9.73664 9.38487C9.78312 9.35413 9.82251 9.31383 9.85219 9.26667C9.88334 9.21423 9.89889 9.15399 9.89702 9.09302C9.89947 9.02856 9.88898 8.96427 9.86617 8.90393C9.84336 8.84359 9.80869 8.78844 9.7642 8.74173C9.67243 8.65093 9.56259 8.58045 9.4418 8.53487C9.31152 8.48558 9.17553 8.453 9.03706 8.43792C8.89517 8.42132 8.77088 8.41169 8.66418 8.40903L8.66916 7.8396L8.31788 7.88044V8.42265C8.14549 8.43934 7.9756 8.47577 7.81153 8.53122C7.65894 8.58137 7.51665 8.65864 7.39151 8.75933C7.27034 8.85856 7.17251 8.98326 7.10497 9.12456C7.03061 9.28457 6.99393 9.45949 6.99772 9.63589C6.99327 9.8114 7.03144 9.98537 7.10895 10.1429C7.18286 10.2852 7.28314 10.4122 7.40446 10.5171C7.53328 10.627 7.67607 10.7193 7.82913 10.7917C7.98894 10.8685 8.15496 10.9396 8.32717 11.0049V12.658C8.10504 12.6428 7.93637 12.58 7.82282 12.4685C7.70926 12.3569 7.65116 12.1912 7.65116 11.9704V11.8409C7.58933 11.8323 7.52697 11.8282 7.46456 11.8286C7.40095 11.8281 7.33758 11.8365 7.27629 11.8535C7.21859 11.8679 7.16386 11.8923 7.1146 11.9256C7.06744 11.958 7.02836 12.0008 7.00038 12.0508C6.97149 12.1054 6.95719 12.1666 6.95887 12.2284C6.95887 12.3911 7.00735 12.5216 7.10563 12.6212C7.20601 12.7224 7.32709 12.8008 7.46057 12.851C7.60179 12.9037 7.74882 12.9392 7.89852 12.9569C8.02882 12.9735 8.15996 12.9827 8.29131 12.9844H8.32717L8.33215 13.5393L8.6519 13.4728V12.9615C8.83329 12.9392 9.01153 12.8962 9.18315 12.8334C9.34592 12.7743 9.49691 12.6869 9.62907 12.575C9.75515 12.4679 9.85702 12.3351 9.92789 12.1856C10.0055 12.0141 10.0433 11.8272 10.0385 11.639C10.043 11.466 10.0037 11.2947 9.92424 11.141C9.84924 11.0009 9.74656 10.8776 9.62243 10.7784ZM8.06852 10.0659C7.98924 10.0225 7.91638 9.9683 7.85204 9.90484C7.78458 9.8383 7.73161 9.75852 7.69647 9.67052C7.66133 9.58253 7.64477 9.48821 7.64784 9.39351C7.64618 9.30396 7.66515 9.21523 7.70329 9.13419C7.7376 9.05946 7.7857 8.99188 7.84506 8.93497C7.90675 8.87816 7.97788 8.83254 8.05524 8.80017C8.14024 8.76522 8.2296 8.74198 8.32086 8.7311L8.32584 10.192C8.23754 10.1554 8.15159 10.1132 8.06852 10.0659ZM9.32061 12.162C9.28499 12.2468 9.2331 12.3239 9.16787 12.3888C9.10021 12.4554 9.02159 12.5099 8.93545 12.5498C8.84561 12.5939 8.74989 12.6249 8.65123 12.6418L8.65622 11.1035C8.74752 11.1393 8.8375 11.1795 8.9245 11.224C9.00883 11.2659 9.08703 11.3192 9.15692 11.3824C9.22305 11.4416 9.27726 11.513 9.31663 11.5926C9.35837 11.6802 9.37896 11.7764 9.37672 11.8735C9.37871 11.9724 9.35993 12.0707 9.32161 12.162H9.32061Z" fill="#F0B90B"/>
<path d="M11.1628 4.5907H5.8364C3.47067 6.31726 1.81616 9.97259 1.81616 12.2938C1.81583 15.4172 4.80776 17 8.49995 17C12.1921 17 15.1844 15.4172 15.1844 12.2942C15.1841 9.97259 13.5286 6.31593 11.1628 4.5907ZM8.49995 14.3056C7.78415 14.3056 7.08443 14.0933 6.48927 13.6957C5.8941 13.298 5.43023 12.7328 5.1563 12.0714C4.88238 11.4101 4.81071 10.6824 4.95035 9.9804C5.09 9.27835 5.43469 8.63349 5.94083 8.12734C6.44698 7.62119 7.09185 7.2765 7.79389 7.13686C8.49594 6.99721 9.22363 7.06888 9.88494 7.34281C10.5463 7.61673 11.1115 8.08061 11.5092 8.67577C11.9068 9.27094 12.1191 9.97066 12.1191 10.6865C12.1191 11.6463 11.7378 12.5669 11.0591 13.2456C10.3804 13.9243 9.45981 14.3056 8.49995 14.3056Z" fill="#F0B90B"/>
</svg>
